<svg width="24" height="25" viewBox="0 0 24 25" fill="none" xmlns="http://www.w3.org/2000/svg">
<path d="M20.86 8.86985L13.93 3.32985C12.86 2.46985 11.13 2.46985 10.07 3.31985L3.14002 8.86985C2.36002 9.48985 1.86002 10.7998 2.03002 11.7798L3.36002 19.7398C3.60002 21.1598 4.96002 22.3098 6.40002 22.3098H17.6C19.03 22.3098 20.4 21.1498 20.64 19.7398L21.97 11.7798C22.13 10.7998 21.63 9.48985 20.86 8.86985ZM12 15.9998C10.62 15.9998 9.50002 14.8798 9.50002 13.4998C9.50002 12.1198 10.62 10.9998 12 10.9998C13.38 10.9998 14.5 12.1198 14.5 13.4998C14.5 14.8798 13.38 15.9998 12 15.9998Z" fill="white"/>
</svg>
