<svg width="232" height="191" viewBox="0 0 232 191" fill="none" xmlns="http://www.w3.org/2000/svg">
<path d="M96.6497 20.0596C102.758 36.3925 122.749 33.9347 136.314 30.4461C139.567 29.5739 142.899 28.6225 145.834 26.9575C148.769 25.2925 151.228 22.5968 152.18 19.346C153.211 15.6989 152.021 11.6553 149.959 8.48384C148.055 5.55026 145.278 2.45811 142.343 0.555243C141.074 3.80597 136.552 4.04383 133.458 4.04383C129.095 4.04383 125.129 2.37882 121.083 1.18953C116.958 0.000240743 112.515 -0.237617 108.39 0.872387C100.061 2.85454 93.3972 11.3381 96.6497 20.0596Z" fill="#EB1D36"/>
<path d="M109.104 129.395C108.866 129.395 108.787 129.395 108.628 129.474L109.104 129.395Z" fill="#EB1D36"/>
<path d="M109.104 129.395C108.866 129.395 108.787 129.395 108.628 129.474L109.104 129.395Z" fill="#EB1D36"/>
<path d="M91.4933 49.8708V34.5686C91.4933 21.5657 103.631 10.9414 118.465 10.9414C125.843 10.9414 132.586 13.5578 137.504 17.8393C142.423 22.1207 145.437 27.9879 145.437 34.4894V49.7916" stroke="#EB1D36" stroke-width="2" stroke-miterlimit="10"/>
<path d="M145.437 66.4414V84.1222C145.437 97.1251 133.3 107.749 118.465 107.749C103.631 107.749 91.4933 97.1251 91.4933 84.1222V66.4414" stroke="#EB1D36" stroke-width="2" stroke-miterlimit="10"/>
<path d="M102.441 71.9125C110.02 71.9125 116.165 65.7714 116.165 58.196C116.165 50.6206 110.02 44.4795 102.441 44.4795C94.8612 44.4795 88.7168 50.6206 88.7168 58.196C88.7168 65.7714 94.8612 71.9125 102.441 71.9125Z" stroke="#EB1D36" stroke-width="2" stroke-miterlimit="10"/>
<path d="M134.41 71.9125C141.99 71.9125 148.134 65.7714 148.134 58.196C148.134 50.6206 141.99 44.4795 134.41 44.4795C126.831 44.4795 120.686 50.6206 120.686 58.196C120.686 65.7714 126.831 71.9125 134.41 71.9125Z" stroke="#EB1D36" stroke-width="2" stroke-miterlimit="10"/>
<path d="M116.085 57.7998H120.845" stroke="#EB1D36" stroke-width="4" stroke-miterlimit="10"/>
<path d="M129.492 105.609H129.571V130.426" stroke="#EB1D36" stroke-width="2" stroke-miterlimit="10"/>
<path d="M109.739 130.108V106.243" stroke="#EB1D36" stroke-width="2" stroke-miterlimit="10"/>
<path d="M102.441 61.3673C104.193 61.3673 105.614 59.9474 105.614 58.1959C105.614 56.4443 104.193 55.0244 102.441 55.0244C100.688 55.0244 99.2676 56.4443 99.2676 58.1959C99.2676 59.9474 100.688 61.3673 102.441 61.3673Z" fill="#EB1D36"/>
<path d="M134.41 61.3673C136.163 61.3673 137.583 59.9474 137.583 58.1959C137.583 56.4443 136.163 55.0244 134.41 55.0244C132.658 55.0244 131.237 56.4443 131.237 58.1959C131.237 59.9474 132.658 61.3673 134.41 61.3673Z" fill="#EB1D36"/>
<path d="M89.6688 63.3496H88.0822C86.3369 63.3496 84.7503 64.0632 83.5604 65.1732C82.4498 66.3625 81.7358 67.9482 81.7358 69.6925C81.7358 73.1811 84.5917 76.0354 88.0822 76.0354H91.2553" stroke="#EB1D36" stroke-width="2" stroke-miterlimit="10"/>
<path d="M147.182 63.3496H148.769C152.259 63.3496 155.115 66.2039 155.115 69.6925C155.115 71.4368 154.401 73.0225 153.211 74.2118C152.101 75.3218 150.514 76.0354 148.769 76.0354H145.596" stroke="#EB1D36" stroke-width="2" stroke-miterlimit="10"/>
<path d="M91.3346 67.7891V71.5948H88.7961C87.7648 71.5948 86.8922 70.7226 86.8922 69.6919C86.8922 69.1369 87.1302 68.6612 87.4475 68.3441C87.7648 68.0269 88.2408 67.7891 88.7961 67.7891H91.3346Z" fill="#EB1D36"/>
<path d="M145.596 71.5948V67.7891H148.134C149.166 67.7891 150.038 68.6612 150.038 69.6919C150.038 70.2469 149.8 70.7226 149.483 71.0398C149.166 71.3569 148.69 71.5948 148.134 71.5948H145.596Z" fill="#EB1D36"/>
<path d="M118.465 71.2783C118.465 71.2783 114.499 77.6212 120.845 76.0355" stroke="#EB1D36" stroke-width="2" stroke-miterlimit="10" stroke-linecap="round"/>
<path d="M111.326 89.5928C111.326 89.5928 117.672 97.4421 126.398 89.5928" stroke="#EB1D36" stroke-width="2" stroke-miterlimit="10" stroke-linecap="round"/>
<path d="M96.2529 41.9423C96.2529 41.9423 100.616 37.5816 108.152 41.1495" stroke="#EB1D36" stroke-width="3" stroke-miterlimit="10" stroke-linecap="round"/>
<path d="M140.677 41.9423C140.677 41.9423 136.314 37.5816 128.778 41.1495" stroke="#EB1D36" stroke-width="3" stroke-miterlimit="10" stroke-linecap="round"/>
<path d="M91.3346 32.9034C91.3346 32.9034 80.3872 24.4198 85.1469 14.1126C89.9067 3.80545 104.979 9.35547 104.979 9.35547C104.979 9.35547 111.008 35.0441 91.3346 32.9034Z" fill="#EB1D36"/>
<path d="M36.9149 96.2536C35.9629 93.1614 34.6143 91.655 33.9004 87.1357C32.3931 78.0971 32.9484 69.4549 29.2199 69.772C27.7127 69.9306 27.2367 71.5163 27.316 72.3885L28.506 86.66C28.03 88.325 27.1574 87.6907 27.1574 87.6907C27.1574 87.6907 24.0635 75.0049 23.6669 72.7056C23.2703 70.4856 22.1596 69.217 20.6524 69.3756C18.0345 69.6135 19.0658 72.7849 19.3038 73.9742L22.0803 89.3557C22.3183 90.8621 20.7317 90.3864 20.7317 90.3864L14.5441 75.0049C13.8301 73.3399 12.4815 73.7363 12.4815 73.7363C10.0223 74.2913 10.9742 76.5113 10.9742 76.5113L16.2893 92.8443C16.2893 92.9235 16.2893 93.0028 16.2893 93.0821C16.3686 93.9543 15.258 94.43 14.782 93.6371C13.1161 91.1 9.86364 87.0564 7.16645 85.4707C5.81785 84.6778 4.8659 84.8364 4.3106 85.2328C3.75529 85.6292 3.67596 86.3428 4.07261 86.8978L13.9887 101.249C16.2893 116.471 25.5708 118.295 25.5708 118.295L31.1238 140.019L39.2947 174.271L40.326 178.632C41.278 182.834 45.0858 185.847 49.3695 185.847H53.7326C56.8265 185.847 58.9683 182.834 58.0164 179.98L38.2635 119.881L37.3908 114.648C39.2947 112.507 40.564 107.988 41.1986 104.737C41.5953 102.993 41.7539 101.169 41.5953 99.425C41.278 95.0643 44.2131 87.215 44.2131 87.215C43.9751 85.7085 41.1193 86.9771 41.1193 86.9771C37.9461 88.0871 37.1528 93.1614 36.9149 95.9364C36.8355 97.1257 36.2802 98.1564 35.4869 98.9493C30.7272 103.627 30.3305 108.86 30.3305 108.86" stroke="#EB1D36" stroke-width="2" stroke-miterlimit="10"/>
<path d="M23.5876 72.7843C23.1909 70.5643 22.477 68.8992 20.5731 69.4542C18.0345 70.1678 18.9865 72.8635 19.2245 74.0528" stroke="#EB1D36" stroke-width="2" stroke-miterlimit="10"/>
<path d="M177.962 190.207V191H160.668L157.019 170.782V191H82.1325V179.503C82.1325 176.728 82.1325 173.953 82.2118 171.178C80.5459 172.526 78.7213 173.636 76.5794 174.825L59.9997 185.925C59.9203 186.005 59.841 186.005 59.7617 186.084C59.0477 186.48 58.2544 186.718 57.3818 186.718L53.934 186.849C53.934 186.849 57.6198 185.45 58.4924 181.961L52.5427 162.14C61.0309 155.083 74.7549 134.707 101.092 130.505C102.203 130.267 103.393 130.029 104.662 129.87C105.852 129.712 107.042 129.553 108.39 129.474L109.263 129.395V129.553L108.787 129.632C108.946 129.632 109.025 129.632 109.184 129.553H109.263C109.422 129.553 109.58 129.553 109.739 129.474H109.818L110.612 129.395V132.407C110.612 132.804 110.77 133.28 111.167 133.676C112.357 135.024 115.054 136.055 118.307 136.292C118.862 136.372 119.417 136.372 119.972 136.372C120.052 136.372 120.131 136.372 120.131 136.372H120.21C123.384 136.292 126.319 135.42 127.826 134.152C128.302 133.755 128.778 133.2 128.778 132.407V129.632L129.571 129.791H129.73C129.968 129.791 130.127 129.87 130.365 129.87V129.632L131.396 129.791C160.51 133.359 177.962 155.955 177.962 190.207Z" fill="#EB1D36"/>
<path d="M59.9202 185.847L59.6823 186.005C59.7616 186.005 59.8409 185.926 59.9202 185.847Z" fill="#EB1D36"/>
</svg>
