<svg width="93" height="94" viewBox="0 0 93 94" fill="none" xmlns="http://www.w3.org/2000/svg">
<path d="M81.3011 24.0257C68.4476 22.7519 55.5169 22.0957 42.6248 22.0957C34.9822 22.0957 27.3396 22.4817 19.697 23.2537L11.8228 24.0257" stroke="white" stroke-width="4.17288" stroke-linecap="round" stroke-linejoin="round"/>
<path d="M33.0521 20.127L33.9013 15.0705C34.5189 11.4036 34.9821 8.66309 41.5053 8.66309H51.6183C58.1415 8.66309 58.6433 11.558 59.2223 15.1091L60.0715 20.127" stroke="white" stroke-width="4.17288" stroke-linecap="round" stroke-linejoin="round"/>
<path d="M73.0022 36.2227L70.4933 75.092C70.0687 81.152 69.7213 85.8611 58.9522 85.8611H34.1715C23.4024 85.8611 23.055 81.152 22.6304 75.092L20.1215 36.2227" stroke="white" stroke-width="4.17288" stroke-linecap="round" stroke-linejoin="round"/>
<path d="M40.1157 64.6318H52.9692" stroke="white" stroke-width="0.799943" stroke-linecap="round" stroke-linejoin="round"/>
<path d="M36.9121 49.1924H56.2117" stroke="white" stroke-width="0.799943" stroke-linecap="round" stroke-linejoin="round"/>
</svg>
